# xmcd
#
# Track frame offsets: 
#        150
#        18215
#        36911
#        58429
#        75351
#
# Disc length: 1269 seconds
#
# Revision: 0
# Processed by: cddbd v1.5.2PL0 Copyright (c) Steve Scherf et al.
# Submitted via: ExactAudioCopyFreeDBPlugin 1.0
#
DISCID=3504f305
DTITLE=Roberrt Rooke - The Road
DYEAR=2016
DGENRE=Country
TTITLE0=Sing That Song
TTITLE1=The Road
TTITLE2=Don't Take This
TTITLE3=Time and Space
TTITLE4=Wash Me Clean
EXTD=
EXTT0=
EXTT1=
EXTT2=
EXTT3=
EXTT4=
PLAYORDER=
